<?xml version="1.0" encoding="UTF-8" standalone="no"?>
<svg
   xmlns:dc="http://purl.org/dc/elements/1.1/"
   xmlns:cc="http://creativecommons.org/ns#"
   xmlns:rdf="http://www.w3.org/1999/02/22-rdf-syntax-ns#"
   xmlns:svg="http://www.w3.org/2000/svg"
   xmlns="http://www.w3.org/2000/svg"
   xmlns:sodipodi="http://sodipodi.sourceforge.net/DTD/sodipodi-0.dtd"
   xmlns:inkscape="http://www.inkscape.org/namespaces/inkscape"
   width="130.0013"
   height="130.0013"
   id="svg3349"
   viewBox="0 0 130.0013 130.0013"
   version="1.1"
   sodipodi:docname="clocks.svg"
   inkscape:version="0.92.5 (2060ec1f9f, 2020-04-08)">
  <metadata
     id="metadata108">
    <rdf:RDF>
      <cc:Work
         rdf:about="">
        <dc:format>image/svg+xml</dc:format>
        <dc:type
           rdf:resource="http://purl.org/dc/dcmitype/StillImage" />
        <dc:title></dc:title>
      </cc:Work>
    </rdf:RDF>
  </metadata>
  <defs
     id="defs106" />
  <sodipodi:namedview
     pagecolor="#ffffff"
     bordercolor="#666666"
     borderopacity="1"
     objecttolerance="10"
     gridtolerance="10"
     guidetolerance="10"
     inkscape:pageopacity="0"
     inkscape:pageshadow="2"
     inkscape:window-width="1848"
     inkscape:window-height="1016"
     id="namedview104"
     showgrid="false"
     inkscape:zoom="1.1212869"
     inkscape:cx="-318.36129"
     inkscape:cy="10.532622"
     inkscape:window-x="72"
     inkscape:window-y="27"
     inkscape:window-maximized="1"
     inkscape:current-layer="Layer1000" />
  <g
     id="Layer1000"
     transform="translate(-439.1876,-13.7373)">
    <path
       d="m 531.6475,34.1223 0.2796,-0.484 -2.4951,-1.4424 -0.2798,0.4838 c 0.4435,0.2563 0.5866,0.7921 0.3449,1.2109 l -5.8534,10.1239 c -0.2423,0.4182 -0.7781,0.5619 -1.1971,0.3194 -0.024,-0.0138 -0.3036,0.4702 -0.3036,0.4702 l 2.4946,1.4424 0.2796,-0.484 c -0.4188,-0.2423 -0.5617,-0.7774 -0.3194,-1.1969 l 5.8526,-10.1232 c 0.2425,-0.4195 0.7783,-0.5626 1.1971,-0.3201 z"
       style="fill:#000000;fill-rule:evenodd"
       id="path608"
       inkscape:connector-curvature="0" />
    <path
       d="m 539.2203,59.8296 c -0.42,0.2398 -0.9551,0.0931 -1.1944,-0.3276 -0.253,-0.4448 -0.1068,-0.9794 0.3132,-1.2191 l 10.1624,-5.7863 c 0.4207,-0.2393 0.9546,-0.0924 1.1944,0.3276 0.2538,0.4448 0.1064,0.9794 -0.3137,1.2191 z m 11.9017,-4.5006 0.4858,-0.2771 -2.852,-5.0088 -0.4858,0.277 c 0.2536,0.4448 0.1062,0.9794 -0.3138,1.2186 l -10.1618,5.7869 c -0.4202,0.2392 -0.9553,0.0923 -1.1951,-0.3277 -0.0132,-0.0247 -0.4992,0.2518 -0.4992,0.2518 l 2.8521,5.0087 0.4858,-0.2764 c -0.239,-0.4202 -0.093,-0.9553 0.3277,-1.1945 l 10.1619,-5.7863 c 0.4207,-0.2398 0.9553,-0.0929 1.1944,0.3278 z"
       style="fill:#000000;fill-rule:evenodd"
       id="path610"
       inkscape:connector-curvature="0" />
    <path
       d="m 543.9869,81.0826 c -0.484,0 -0.8762,-0.3917 -0.8762,-0.8755 0,-0.5126 0.3922,-0.9042 0.8762,-0.9042 h 11.694 c 0.484,0 0.8757,0.3916 0.8757,0.8757 0,0.5123 -0.3917,0.904 -0.8757,0.904 z m 0,-2.8817 c -0.484,0 -0.8762,-0.3923 -0.8762,-0.8757 0,-0.5124 0.3922,-0.9041 0.8762,-0.9041 h 11.694 c 0.484,0 0.8757,0.3917 0.8757,0.8757 0,0.5118 -0.3917,0.9041 -0.8757,0.9041 z m 12.5697,4.8594 0.5592,6e-4 v -8.6458 h -0.5592 c 0,0.5118 -0.3917,0.904 -0.8757,0.904 h -11.694 c -0.484,0 -0.8762,-0.3922 -0.8762,-0.8762 0,-0.0278 -0.5587,-0.0278 -0.5587,-0.0278 v 8.6458 h 0.5587 c 0,-0.4839 0.3922,-0.8763 0.8762,-0.8763 h 11.694 c 0.484,0 0.8757,0.3924 0.8757,0.8757 z"
       style="fill:#000000;fill-rule:evenodd"
       id="path612"
       inkscape:connector-curvature="0" />
    <path
       d="m 460.3627,49.969 0.3169,-0.5359 -0.4815,-0.2846 -1.4684,2.4801 0.4815,0.2846 0.1209,-0.205 c 0.222,-0.3745 0.7351,-0.4453 1.0501,-0.1436 l 2.9899,2.8622 -3.9471,-1.2464 c -0.415,-0.1309 -0.5997,-0.615 -0.3783,-0.9901 l -0.4815,-0.2846 -1.4684,2.48 0.4815,0.2846 0.1987,-0.3364 c 0.1607,-0.2703 0.4864,-0.3949 0.7864,-0.3006 l 6.5637,2.0726 4.2243,4.0446 c 0.2278,0.217 0.2753,0.5624 0.1146,0.8332 l -0.3189,0.5383 0.4814,0.2848 1.4684,-2.4795 -0.4814,-0.2853 -0.1189,0.2025 c -0.2227,0.3746 -0.7352,0.4447 -1.0496,0.1436 l -2.9912,-2.8622 3.9471,1.2464 c 0.4164,0.1316 0.6011,0.6149 0.3791,0.9901 l 0.4795,0.2873 1.4684,-2.4795 -0.4815,-0.2853 -0.1974,0.3341 c -0.16,0.2701 -0.4859,0.3947 -0.7852,0.2998 l -6.5637,-2.0726 -4.2255,-4.044 c -0.2265,-0.2175 -0.2746,-0.5624 -0.1139,-0.8332 z"
       style="fill:#000000;fill-rule:evenodd"
       id="path614"
       inkscape:connector-curvature="0" />
    <path
       d="m 486.7825,42.8592 c 0.2386,0.4207 0.0904,0.9553 -0.3308,1.1938 -0.0248,0.0133 -0.3627,0.2045 -0.3627,0.2045 -0.2733,0.1549 -0.6179,0.1006 -0.8306,-0.1311 l -4.6583,-5.0675 -1.6486,-5.6111 c -0.0894,-0.3018 0.0417,-0.6244 0.3156,-0.7794 l 0.5421,-0.3063 c 0.4462,-0.2518 0.9801,-0.1037 1.2179,0.3171 z m -4.4647,-11.9155 -0.2753,-0.4865 -5.0175,2.8369 0.2758,0.4858 0.2068,-0.1163 c 0.3791,-0.2145 0.8592,-0.0203 0.9819,0.3979 l 1.1668,3.9718 -2.8015,-3.0475 c -0.2948,-0.3208 -0.2139,-0.8319 0.1645,-1.0464 l -0.2746,-0.4871 -2.5085,1.4184 0.2752,0.4865 0.3404,-0.1917 c 0.2733,-0.155 0.6175,-0.1006 0.83,0.1309 l 4.659,5.067 1.6486,5.6111 c 0.0881,0.3018 -0.043,0.6249 -0.3163,0.7794 l -0.5447,0.3081 0.2751,0.4865 2.5093,-1.4184 -0.276,-0.4865 -0.2043,0.1158 c -0.3789,0.2138 -0.8584,0.0196 -0.9818,-0.3986 l -1.1661,-3.9713 2.8009,3.047 c 0.2948,0.3208 0.2145,0.8326 -0.1646,1.0469 l 0.272,0.4885 5.0177,-2.8369 -0.2751,-0.4865 c -0.4215,0.238 -0.9553,0.0893 -1.1933,-0.3314 l -5.7558,-10.1795 c -0.238,-0.4215 -0.0899,-0.9561 0.3314,-1.1939 z"
       style="fill:#000000;fill-rule:evenodd"
       id="path616"
       inkscape:connector-curvature="0" />
    <path
       d="m 464.7425,79.0644 c 0.3063,0.0715 0.5225,0.3441 0.5225,0.6587 v 0.6079 c 0,0.484 -0.3922,0.8762 -0.8755,0.8762 h -11.6941 c -0.4839,0 -0.8763,-0.3922 -0.8763,-0.8762 v -0.3732 c 0,-0.3145 0.2172,-0.5871 0.5233,-0.6587 l 6.7036,-1.5613 z m -12.9234,-4.1793 v -0.6232 h -0.5586 v 2.8825 h 0.5586 v -0.238 c 0,-0.4352 0.4062,-0.7579 0.8307,-0.6585 l 4.0313,0.9388 -4.0313,0.9388 c -0.4245,0.0987 -0.8307,-0.2232 -0.8307,-0.6585 h -0.5586 v 5.7458 h 0.5586 c 0,-0.5119 0.3924,-0.9035 0.8763,-0.9035 h 11.6941 c 0.4833,0 0.8755,0.3916 0.8755,0.8757 0,0.0278 0.5594,0.0278 0.5594,0.0278 V 77.467 h -0.5594 v 0.2348 c 0,0.4352 -0.4047,0.7571 -0.8294,0.6585 l -4.0313,-0.9388 4.0313,-0.939 c 0.4247,-0.0992 0.8294,0.2234 0.8294,0.6587 l 0.5594,0.0032 v -2.8825 h -0.5594 v 0.3884 c 0,0.3144 -0.2162,0.5872 -0.5225,0.6586 l -6.7042,1.5615 -5.6959,-1.3268 c -0.3061,-0.0714 -0.5233,-0.3441 -0.5233,-0.6585 z"
       style="fill:#000000;fill-rule:evenodd"
       id="path618"
       inkscape:connector-curvature="0" />
    <path
       d="m 508.1354,38.9387 c 0,0.4839 -0.3917,0.8763 -0.8757,0.8763 -0.5118,0 -0.904,-0.3924 -0.904,-0.8763 V 27.2453 c 0,-0.484 0.3922,-0.8763 0.8755,-0.8763 0.5125,0 0.9042,0.3923 0.9042,0.8763 z m -2.8817,0 c 0,0.4839 -0.3924,0.8763 -0.8757,0.8763 -0.0286,0 -0.4163,0 -0.4163,0 -0.3144,0 -0.5871,-0.2165 -0.6592,-0.5233 l -1.5608,-6.7036 1.326,-5.6959 c 0.0721,-0.3062 0.3449,-0.5232 0.6593,-0.5232 h 0.6224 c 0.5119,0 0.9043,0.3923 0.9043,0.8763 z M 510.113,26.369 v -0.5593 h -8.6453 v 0.5593 h 0.238 c 0.4352,0 0.7573,0.4055 0.6585,0.83 l -0.9388,4.0313 -0.9396,-4.0313 c -0.0986,-0.4245 0.224,-0.83 0.6593,-0.83 v -0.5593 h -2.8818 v 0.5593 h 0.391 c 0.3145,0 0.5871,0.217 0.6587,0.5232 l 1.5607,6.7036 -1.326,5.6959 c -0.0715,0.3068 -0.3443,0.5233 -0.6587,0.5233 h -0.6257 v 0.5586 h 2.8818 V 39.815 h -0.2348 c -0.4352,0 -0.7579,-0.4057 -0.6592,-0.8302 l 0.939,-4.0313 0.9393,4.0313 c 0.0988,0.4245 -0.2232,0.8302 -0.6585,0.8302 l -0.003,0.5586 h 8.6453 V 39.815 c -0.4834,0 -0.8756,-0.3924 -0.8756,-0.8763 V 27.2453 c 0,-0.484 0.3922,-0.8763 0.8756,-0.8763 z"
       style="fill:#000000;fill-rule:evenodd"
       id="path620"
       inkscape:connector-curvature="0" />
    <path
       d="m 547.4786,109.6111 0.9343,-1.6171 -0.4845,-0.2796 -0.1797,0.3112 c -0.1905,0.3303 -0.639,0.3967 -0.9173,0.1361 l -8.1918,-7.6684 10.7374,3.2594 c 0.3652,0.1114 0.5309,0.5326 0.3411,0.863 l 0.4841,0.2788 2.876,-4.9814 -0.4846,-0.2798 c -0.2557,0.4435 -0.7916,0.5872 -1.2103,0.3456 l -10.127,-5.8471 c -0.4194,-0.2422 -0.5624,-0.7776 -0.3208,-1.1963 0.014,-0.0248 -0.4693,-0.3043 -0.4693,-0.3043 l -1.4419,2.4958 0.4846,0.2796 c 0.2417,-0.4188 0.7769,-0.5624 1.1958,-0.3207 l 10.1275,5.8471 c 0.4189,0.2423 0.5631,0.7774 0.3208,1.1964 l -0.2758,0.4788 c -0.1379,0.2385 -0.4214,0.3504 -0.6845,0.2701 l -12.0479,-3.6567 c -0.3649,-0.1114 -0.5308,-0.5328 -0.3403,-0.863 l 0.1,-0.1734 -0.4847,-0.2789 -1.4404,2.4951 0.4838,0.2796 0.1456,-0.251 c 0.1905,-0.3304 0.639,-0.3967 0.9168,-0.1367 l 9.1912,8.6047 c 0.2012,0.188 0.2455,0.4898 0.1076,0.7283 l -0.3372,0.5839 0.4846,0.2796 z"
       style="fill:#000000;fill-rule:evenodd"
       id="path622"
       inkscape:connector-curvature="0" />
    <path
       d="m 526.9114,126.0887 -0.5846,0.3371 0.2797,0.4841 2.4964,-1.4406 -0.2803,-0.4846 -0.3112,0.1797 c -0.3296,0.191 -0.751,0.0247 -0.8617,-0.3404 l -3.2607,-10.7374 7.669,8.1916 c 0.2613,0.2783 0.1944,0.727 -0.1352,0.9173 l 0.2788,0.484 2.4959,-1.4412 -0.2796,-0.484 -0.4884,0.2828 c -0.2385,0.1374 -0.5403,0.0924 -0.7282,-0.1081 l -8.6042,-9.1914 c -0.2613,-0.2783 -0.1943,-0.7268 0.1354,-0.9173 l 0.1739,-0.0999 -0.2801,-0.484 -2.4953,1.4406 0.2791,0.4846 0.2517,-0.1455 c 0.3297,-0.1904 0.7516,-0.0242 0.8623,0.341 l 3.6574,12.0471 c 0.0798,0.2632 -0.0316,0.5471 -0.2701,0.6845 z"
       style="fill:#000000;fill-rule:evenodd"
       id="path624"
       inkscape:connector-curvature="0" />
    <path
       d="m 498.0761,131.1063 v 0.5592 h 5.7635 v -0.5592 h -0.3587 c -0.3814,0 -0.663,-0.3549 -0.5771,-0.7263 l 2.5459,-10.9285 2.5451,10.9285 c 0.0868,0.3714 -0.1947,0.7263 -0.5762,0.7263 v 0.5592 h 2.8823 v -0.5592 h -0.5649 c -0.2753,0 -0.5138,-0.1899 -0.5764,-0.4574 l -2.8565,-12.2622 c -0.0861,-0.3714 0.1955,-0.7263 0.5771,-0.7263 h 0.1998 v -0.5586 h -2.8817 v 0.5586 h 0.2898 c 0.3814,0 0.663,0.3549 0.5769,0.7263 l -2.8558,12.2622 c -0.0625,0.2675 -0.3018,0.4574 -0.5769,0.4574 h -0.6745 c -0.5118,0 -0.904,-0.3922 -0.904,-0.8757 v -11.6939 c 0,-0.4841 0.3922,-0.8763 0.8755,-0.8763 0.0285,0 0.0285,-0.5586 0.0285,-0.5586 h -2.8817 v 0.5586 c 0.4833,0 0.8755,0.3922 0.8755,0.8763 v 11.6939 c 0,0.4835 -0.3922,0.8757 -0.8755,0.8757 z"
       style="fill:#000000;fill-rule:evenodd"
       id="path626"
       inkscape:connector-curvature="0" />
    <path
       d="m 466.1933,92.5053 c 0.4195,-0.2411 0.9546,-0.0969 1.1963,0.3221 0.2549,0.444 0.1107,0.9798 -0.3088,1.2203 l -10.1357,5.8324 c -0.4189,0.241 -0.9548,0.0969 -1.1964,-0.3226 -0.255,-0.4435 -0.1108,-0.9787 0.3087,-1.2197 z m 1.4374,2.4978 c 0.4194,-0.2411 0.9546,-0.0969 1.1956,0.3226 0.2556,0.4435 0.1114,0.9793 -0.3081,1.2204 l -10.1357,5.8318 c -0.4195,0.2418 -0.9548,0.0974 -1.1958,-0.3221 -0.2563,-0.444 -0.1114,-0.9793 0.3081,-1.2204 z m -13.3188,2.0566 -0.4846,0.279 5.749,9.9923 0.4851,-0.279 -0.1797,-0.3119 c -0.1897,-0.3303 -0.0233,-0.7516 0.3424,-0.8617 l 10.7419,-3.2442 -8.2031,7.6569 c -0.2783,0.2601 -0.7268,0.1925 -0.9173,-0.1379 l -0.4847,0.2791 1.4375,2.4983 0.4846,-0.2789 -0.2815,-0.489 c -0.1374,-0.2392 -0.0919,-0.5404 0.1094,-0.7283 l 9.2039,-8.5909 c 0.2785,-0.2601 0.7263,-0.193 0.9167,0.1373 l 0.0994,0.1735 0.4853,-0.2786 -1.4381,-2.4983 -0.4841,0.2791 0.1444,0.2517 c 0.1905,0.3302 0.0233,0.7516 -0.3416,0.8618 l -12.0522,3.6396 c -0.2639,0.0798 -0.5473,-0.0323 -0.6845,-0.2713 l -0.3366,-0.5847 c -0.255,-0.4435 -0.1114,-0.9793 0.3086,-1.2204 l 10.1359,-5.8325 c 0.4188,-0.241 0.9547,-0.0961 1.1957,0.3226 0.014,0.0248 0.4993,-0.2543 0.4993,-0.2543 l -4.3129,-7.4937 -0.484,0.279 c 0.2417,0.4193 0.0968,0.9546 -0.3227,1.1956 l -10.1359,5.8326 c -0.4193,0.241 -0.9539,0.0967 -1.1956,-0.3228 z"
       style="fill:#000000;fill-rule:evenodd"
       id="path628"
       inkscape:connector-curvature="0" />
    <path
       d="m 479.6821,110.5885 c 0.2392,-0.4208 0.7738,-0.5675 1.1945,-0.3289 0.4453,0.253 0.5927,0.7883 0.3537,1.2083 l -5.7763,10.1682 c -0.2385,0.4206 -0.7736,0.5675 -1.1943,0.3289 -0.4448,-0.253 -0.5917,-0.7876 -0.3537,-1.2083 z m -7.9278,9.953 -0.2758,0.486 7.5165,4.2703 0.2766,-0.4858 -0.3126,-0.1777 c -0.3314,-0.188 -0.4012,-0.6359 -0.1429,-0.9163 l 7.6115,-8.2453 -3.1843,10.7602 c -0.1088,0.3656 -0.5288,0.5346 -0.8597,0.3468 l -0.2765,0.4858 2.5053,1.4234 0.2765,-0.4858 -0.491,-0.279 c -0.2385,-0.1354 -0.3529,-0.4188 -0.2746,-0.6826 l 3.5728,-12.0724 c 0.1081,-0.3656 0.5288,-0.5346 0.8603,-0.3466 l 0.1741,0.0991 0.2764,-0.4863 -2.5059,-1.4236 -0.2766,0.4865 0.2531,0.143 c 0.3309,0.1885 0.4004,0.6364 0.1417,0.916 l -8.5397,9.2515 c -0.1865,0.2017 -0.4876,0.2487 -0.7268,0.1126 l -0.5872,-0.3329 c -0.4447,-0.253 -0.5927,-0.7876 -0.3536,-1.2083 l 5.7762,-10.1681 c 0.2391,-0.4207 0.7737,-0.5674 1.1944,-0.3289 0.0248,0.0138 0.3013,-0.472 0.3013,-0.472 l -5.0121,-2.8469 -0.2764,0.4858 c 0.4208,0.2392 0.5682,0.7744 0.3289,1.1945 l -5.776,10.1681 c -0.2385,0.4207 -0.7739,0.5674 -1.1939,0.3289 z"
       style="fill:#000000;fill-rule:evenodd"
       id="path630"
       inkscape:connector-curvature="0" />
    <path
       d="m 504.1882,17.8913 c -33.5511,0 -60.846,27.296 -60.846,60.8467 0,33.5506 27.2949,60.8454 60.846,60.8454 33.5505,0 60.8465,-27.2948 60.8465,-60.8454 0,-33.5507 -27.296,-60.8467 -60.8465,-60.8467 z m 0,122.9408 c -34.2389,0 -62.0943,-27.8552 -62.0943,-62.0941 0,-34.2395 27.8554,-62.0949 62.0943,-62.0949 34.2389,0 62.0942,27.8554 62.0942,62.0949 0,34.2389 -27.8553,62.0941 -62.0942,62.0941 z"
       style="fill:#000000;fill-rule:evenodd"
       id="path632"
       inkscape:connector-curvature="0" />
    <path
       d="m 504.1882,14.4573 c -35.4447,0 -64.2808,28.8359 -64.2808,64.2807 0,35.444 28.8361,64.2801 64.2808,64.2801 35.4441,0 64.2801,-28.8361 64.2801,-64.2801 0,-35.4448 -28.836,-64.2807 -64.2801,-64.2807 z m 0,129.2813 c -35.842,0 -65.0006,-29.1592 -65.0006,-65.0006 0,-35.842 29.1586,-65.0007 65.0006,-65.0007 35.8413,0 65.0007,29.1587 65.0007,65.0007 0,35.8414 -29.1594,65.0006 -65.0007,65.0006 z"
       style="fill:#000000;fill-rule:evenodd"
       id="path634"
       inkscape:connector-curvature="0" />
    <path
       d="m 461.5015,33.7862 c -0.6182,-0.5794 -1.5868,-0.5731 -2.1897,0.0305 -0.6037,0.6042 -0.613,1.5733 -0.0323,2.1908 0.7226,-0.7584 1.4621,-1.5 2.222,-2.2213 z"
       style="fill:#000000;fill-rule:evenodd"
       id="path636"
       inkscape:connector-curvature="0" />
    <path
       d="m 467.7313,28.6016 c -0.5366,-0.6605 -1.4995,-0.7787 -2.1777,-0.2563 -0.677,0.5196 -0.8104,1.4805 -0.3144,2.1689 0.8135,-0.6587 1.6449,-1.2957 2.4921,-1.9126 z"
       style="fill:#000000;fill-rule:evenodd"
       id="path638"
       inkscape:connector-curvature="0" />
    <path
       d="m 474.5798,24.2642 c -0.4455,-0.7193 -1.3868,-0.9631 -2.1264,-0.5341 -0.7409,0.4277 -1.0002,1.3622 -0.5972,2.1099 0.8933,-0.5472 1.8011,-1.0735 2.7236,-1.5758 z"
       style="fill:#000000;fill-rule:evenodd"
       id="path640"
       inkscape:connector-curvature="0" />
    <path
       d="m 504.2958,16.7475 c 0.4903,7e-4 0.9794,0.0089 1.467,0.0209 -0.0266,-0.8471 -0.7199,-1.5259 -1.5728,-1.5272 -0.8535,6e-4 -1.5487,0.6793 -1.5733,1.5272 0.5574,-0.0145 1.1173,-0.0222 1.6791,-0.0209 z"
       style="fill:#000000;fill-rule:evenodd"
       id="path642"
       inkscape:connector-curvature="0" />
    <path
       d="m 497.6649,17.0898 c -0.1349,-0.8396 -0.9105,-1.4236 -1.7595,-1.3134 -0.8465,0.1106 -1.4482,0.8762 -1.3621,1.7202 1.0319,-0.1613 2.0726,-0.2974 3.1216,-0.4068 z"
       style="fill:#000000;fill-rule:evenodd"
       id="path644"
       inkscape:connector-curvature="0" />
    <path
       d="m 489.6738,18.4607 c -0.2417,-0.8135 -1.0877,-1.295 -1.9158,-1.0723 -0.8255,0.2195 -1.3198,1.0577 -1.1236,1.8847 1.0029,-0.2961 2.0163,-0.5669 3.0394,-0.8124 z"
       style="fill:#000000;fill-rule:evenodd"
       id="path646"
       inkscape:connector-curvature="0" />
    <path
       d="m 481.9331,20.8661 c -0.3461,-0.7749 -1.2489,-1.1388 -2.0378,-0.8104 -0.7894,0.3264 -1.1703,1.2211 -0.8698,2.0143 0.9571,-0.4258 1.9265,-0.8262 2.9076,-1.2039 z"
       style="fill:#000000;fill-rule:evenodd"
       id="path648"
       inkscape:connector-curvature="0" />
    <path
       d="m 442.5419,72.176 c 0.1101,-1.0489 0.2467,-2.089 0.4087,-3.1209 -0.842,-0.0847 -1.6089,0.5143 -1.7195,1.3622 -0.1108,0.8452 0.4725,1.6208 1.3108,1.7587 z"
       style="fill:#000000;fill-rule:evenodd"
       id="path650"
       inkscape:connector-curvature="0" />
    <path
       d="m 443.9186,64.1868 c 0.2466,-1.0229 0.5181,-2.0366 0.8142,-3.0392 -0.8256,-0.1962 -1.6646,0.2986 -1.8841,1.1228 -0.2227,0.8269 0.2556,1.6716 1.0699,1.9164 z"
       style="fill:#000000;fill-rule:evenodd"
       id="path652"
       inkscape:connector-curvature="0" />
    <path
       d="m 454.0866,42.2317 c 0.6175,-0.8459 1.2565,-1.6759 1.9152,-2.489 -0.6865,-0.4978 -1.6501,-0.365 -2.1727,0.3138 -0.5188,0.6763 -0.401,1.6399 0.2575,2.1752 z"
       style="fill:#000000;fill-rule:evenodd"
       id="path654"
       inkscape:connector-curvature="0" />
    <path
       d="m 449.7377,49.0815 c 0.5036,-0.9218 1.0307,-1.8284 1.5786,-2.7211 -0.7454,-0.4042 -1.6822,-0.1449 -2.1112,0.5959 -0.4272,0.7384 -0.186,1.6772 0.5326,2.1252 z"
       style="fill:#000000;fill-rule:evenodd"
       id="path656"
       inkscape:connector-curvature="0" />
    <path
       d="m 446.3321,56.4412 c 0.3784,-0.9807 0.7807,-1.9499 1.2072,-2.9059 -0.7952,-0.3017 -1.6887,0.0766 -2.0183,0.8674 -0.3257,0.7884 0.0355,1.6924 0.8111,2.0385 z"
       style="fill:#000000;fill-rule:evenodd"
       id="path658"
       inkscape:connector-curvature="0" />
    <path
       d="m 513.8349,17.4948 c 0.0836,-0.8442 -0.5156,-1.6064 -1.3601,-1.7172 -0.8472,-0.1106 -1.6228,0.4726 -1.7582,1.311 1.047,0.1094 2.0871,0.2453 3.1183,0.4062 z"
       style="fill:#000000;fill-rule:evenodd"
       id="path660"
       inkscape:connector-curvature="0" />
    <path
       d="m 558.645,49.0985 c 0.7225,-0.4453 0.9635,-1.3861 0.5339,-2.1264 -0.427,-0.7376 -1.3641,-0.9976 -2.1105,-0.5947 0.5472,0.8928 1.0735,1.7993 1.5766,2.7211 z"
       style="fill:#000000;fill-rule:evenodd"
       id="path662"
       inkscape:connector-curvature="0" />
    <path
       d="m 562.0473,56.4493 c 0.7764,-0.3472 1.1376,-1.2487 0.8112,-2.0378 -0.3284,-0.7894 -1.2229,-1.1678 -2.0158,-0.8667 0.4252,0.9553 0.827,1.9239 1.2046,2.9045 z"
       style="fill:#000000;fill-rule:evenodd"
       id="path664"
       inkscape:connector-curvature="0" />
    <path
       d="m 554.3049,42.2532 c 0.6579,-0.5358 0.7763,-1.5001 0.2569,-2.1777 -0.5233,-0.6782 -1.4861,-0.8116 -2.1714,-0.3131 0.6587,0.813 1.2965,1.6436 1.9145,2.4908 z"
       style="fill:#000000;fill-rule:evenodd"
       id="path666"
       inkscape:connector-curvature="0" />
    <path
       d="m 565.4244,69.059 c 0.1621,1.0317 0.2981,2.0712 0.4082,3.1196 0.837,-0.1342 1.4216,-0.9104 1.3115,-1.757 -0.1107,-0.849 -0.8755,-1.4481 -1.7197,-1.3626 z"
       style="fill:#000000;fill-rule:evenodd"
       id="path668"
       inkscape:connector-curvature="0" />
    <path
       d="m 564.4578,64.1925 c 0.8154,-0.2442 1.2912,-1.0907 1.0717,-1.9182 -0.2227,-0.8244 -1.0597,-1.3192 -1.8853,-1.1217 0.296,1.0034 0.5681,2.0163 0.8136,3.0399 z"
       style="fill:#000000;fill-rule:evenodd"
       id="path670"
       inkscape:connector-curvature="0" />
    <path
       d="m 442.1972,78.6311 c 5e-4,-0.5031 0.009,-1.0041 0.022,-1.5039 -0.8477,0.0265 -1.5284,0.7193 -1.5279,1.5727 -0.001,0.853 0.6764,1.547 1.5247,1.5728 -0.0133,-0.5453 -0.0203,-1.0925 -0.0188,-1.6416 z"
       style="fill:#000000;fill-rule:evenodd"
       id="path672"
       inkscape:connector-curvature="0" />
    <path
       d="m 521.7451,19.2731 c 0.1954,-0.827 -0.2986,-1.6639 -1.1255,-1.8834 -0.8243,-0.2203 -1.6727,0.2588 -1.9137,1.071 1.0229,0.2455 2.0365,0.517 3.0392,0.8124 z"
       style="fill:#000000;fill-rule:evenodd"
       id="path674"
       inkscape:connector-curvature="0" />
    <path
       d="m 529.3572,22.0745 c 0.3018,-0.7922 -0.0764,-1.6887 -0.8673,-2.0143 -0.7883,-0.3297 -1.6886,0.034 -2.0385,0.8104 0.9813,0.377 1.9499,0.7787 2.9058,1.2039 z"
       style="fill:#000000;fill-rule:evenodd"
       id="path676"
       inkscape:connector-curvature="0" />
    <path
       d="m 536.538,25.849 c 0.401,-0.7486 0.1417,-1.6817 -0.5967,-2.1087 -0.7408,-0.4289 -1.6791,-0.1886 -2.1276,0.5309 0.9225,0.5035 1.8303,1.0299 2.7243,1.5778 z"
       style="fill:#000000;fill-rule:evenodd"
       id="path678"
       inkscape:connector-curvature="0" />
    <path
       d="m 549.1152,36.0252 c 0.5789,-0.618 0.5726,-1.586 -0.0303,-2.1889 -0.6049,-0.6042 -1.5755,-0.6105 -2.1922,-0.0311 0.7586,0.7219 1.5007,1.4614 2.2225,2.22 z"
       style="fill:#000000;fill-rule:evenodd"
       id="path680"
       inkscape:connector-curvature="0" />
    <path
       d="m 543.1555,30.5288 c 0.498,-0.6858 0.3651,-1.6494 -0.3144,-2.1695 -0.6757,-0.5193 -1.6405,-0.4012 -2.1764,0.2563 0.8472,0.6167 1.6773,1.2552 2.4908,1.9132 z"
       style="fill:#000000;fill-rule:evenodd"
       id="path682"
       inkscape:connector-curvature="0" />
    <path
       d="m 562.0183,101.1012 c -0.3789,0.9794 -0.7807,1.946 -1.2078,2.9008 0.1834,0.0696 0.3714,0.1069 0.5593,0.1074 0.6162,7e-4 1.2046,-0.3617 1.4577,-0.9672 0.3301,-0.7908 -0.0348,-1.6924 -0.8092,-2.041 z"
       style="fill:#000000;fill-rule:evenodd"
       id="path684"
       inkscape:connector-curvature="0" />
    <path
       d="m 533.7371,133.246 c 0.2961,0.4788 0.8061,0.7466 1.3355,0.7478 0.2696,6e-4 0.5398,-0.0658 0.7897,-0.2101 0.737,-0.427 0.9996,-1.3626 0.5979,-2.1099 -0.8933,0.546 -1.8006,1.0704 -2.7231,1.5722 z"
       style="fill:#000000;fill-rule:evenodd"
       id="path686"
       inkscape:connector-curvature="0" />
    <path
       d="m 540.5856,128.9192 c 0.3101,0.3802 0.7611,0.5808 1.2199,0.5814 0.3359,7e-4 0.6744,-0.1044 0.961,-0.3232 0.6788,-0.5201 0.811,-1.4817 0.3144,-2.1694 -0.8149,0.6572 -1.6468,1.2944 -2.4953,1.9112 z"
       style="fill:#000000;fill-rule:evenodd"
       id="path688"
       inkscape:connector-curvature="0" />
    <path
       d="m 526.378,136.6351 c 0.2613,0.5827 0.8307,0.9318 1.4337,0.9333 0.2024,0 0.4049,-0.0388 0.6029,-0.1184 0.7896,-0.3264 1.1703,-1.2216 0.8717,-2.015 -0.9571,0.4238 -1.9264,0.8244 -2.9083,1.2001 z"
       style="fill:#000000;fill-rule:evenodd"
       id="path690"
       inkscape:connector-curvature="0" />
    <path
       d="m 546.8237,123.7383 c 0.303,0.2835 0.6884,0.4315 1.0762,0.4322 0.4029,10e-4 0.8059,-0.1537 1.1147,-0.4593 0.6035,-0.6036 0.613,-1.5735 0.0341,-2.1909 -0.7231,0.7573 -1.4645,1.4974 -2.225,2.218 z"
       style="fill:#000000;fill-rule:evenodd"
       id="path692"
       inkscape:connector-curvature="0" />
    <path
       d="m 518.6343,139.0328 c 0.2012,0.6795 0.8224,1.1275 1.5032,1.1288 0.1361,0 0.2721,-0.0165 0.4087,-0.0551 0.8275,-0.2195 1.3217,-1.0539 1.1268,-1.8816 -1.0029,0.2936 -2.0156,0.5639 -3.0387,0.8079 z"
       style="fill:#000000;fill-rule:evenodd"
       id="path694"
       inkscape:connector-curvature="0" />
    <path
       d="m 567.685,78.7057 c -10e-4,-0.856 -0.6801,-1.5488 -1.5278,-1.5728 0.0145,0.5689 0.0228,1.14 0.0215,1.7132 -7e-4,0.5251 -0.009,1.0497 -0.0222,1.5715 0.8464,-0.0245 1.5272,-0.7168 1.5285,-1.5695 0,-0.0253 0,-0.0531 -0.002,-0.0786 0.002,-0.022 0.002,-0.0443 0.002,-0.0638 z"
       style="fill:#000000;fill-rule:evenodd"
       id="path696"
       inkscape:connector-curvature="0" />
    <path
       d="m 554.2505,115.2987 c -0.6194,0.8465 -1.2589,1.6759 -1.9194,2.4889 0.2776,0.2037 0.5984,0.3036 0.9198,0.3043 0.4725,5e-4 0.9395,-0.2095 1.2514,-0.6149 0.5201,-0.6758 0.4042,-1.6399 -0.2518,-2.1783 z"
       style="fill:#000000;fill-rule:evenodd"
       id="path698"
       inkscape:connector-curvature="0" />
    <path
       d="m 565.8256,85.372 c -0.1106,1.0471 -0.2486,2.0858 -0.4118,3.1172 0.0524,0.0056 0.105,0.0108 0.1562,0.0108 0.7814,0.0012 1.4602,-0.5752 1.564,-1.3698 0.1139,-0.8452 -0.4695,-1.6228 -1.3084,-1.7582 z"
       style="fill:#000000;fill-rule:evenodd"
       id="path700"
       inkscape:connector-curvature="0" />
    <path
       d="m 510.6445,140.3951 c 0.1221,0.7699 0.7839,1.3265 1.5488,1.3285 0.067,0 0.1359,-0.006 0.2055,-0.014 0.8459,-0.1099 1.4469,-0.8743 1.3647,-1.7177 -1.0313,0.1595 -2.0713,0.2943 -3.119,0.4032 z"
       style="fill:#000000;fill-rule:evenodd"
       id="path702"
       inkscape:connector-curvature="0" />
    <path
       d="m 558.6032,108.4583 c -0.5043,0.92 -1.0319,1.8253 -1.5803,2.7168 0.2358,0.1289 0.4921,0.1942 0.7439,0.1942 0.5448,0.001 1.0737,-0.2816 1.3653,-0.7864 0.4296,-0.7378 0.1924,-1.6759 -0.5289,-2.1246 z"
       style="fill:#000000;fill-rule:evenodd"
       id="path704"
       inkscape:connector-curvature="0" />
    <path
       d="m 442.5356,85.2278 c -0.8377,0.1341 -1.4241,0.9103 -1.314,1.7562 0.1019,0.7927 0.7787,1.3716 1.5563,1.3729 0.0538,0 0.1081,-0.0051 0.1619,-0.0108 -0.1607,-1.0312 -0.2961,-2.0706 -0.4042,-3.1183 z"
       style="fill:#000000;fill-rule:evenodd"
       id="path706"
       inkscape:connector-curvature="0" />
    <path
       d="m 564.4408,93.358 c -0.2481,1.0224 -0.5201,2.0348 -0.8174,3.0369 0.1214,0.0303 0.2447,0.0468 0.3631,0.0468 0.6978,0.0013 1.3348,-0.4618 1.5222,-1.1673 0.2226,-0.8237 -0.253,-1.6721 -1.0679,-1.9164 z"
       style="fill:#000000;fill-rule:evenodd"
       id="path708"
       inkscape:connector-curvature="0" />
    <path
       d="m 459.2132,121.4007 c -0.5809,0.6156 -0.5746,1.5855 0.029,2.1884 0.3056,0.3094 0.7078,0.4625 1.111,0.4638 0.3877,5e-4 0.7762,-0.1444 1.0787,-0.4303 -0.7586,-0.7218 -1.4982,-1.4626 -2.2187,-2.2219 z"
       style="fill:#000000;fill-rule:evenodd"
       id="path710"
       inkscape:connector-curvature="0" />
    <path
       d="m 449.6967,108.3166 c -0.7213,0.446 -0.9649,1.3863 -0.5354,2.1259 0.2911,0.5036 0.8187,0.7876 1.3635,0.7889 0.2524,5e-4 0.5086,-0.064 0.7452,-0.1924 -0.5459,-0.8933 -1.0717,-1.8006 -1.5733,-2.7224 z"
       style="fill:#000000;fill-rule:evenodd"
       id="path712"
       inkscape:connector-curvature="0" />
    <path
       d="m 454.0298,115.1671 c -0.658,0.5359 -0.7789,1.4994 -0.2595,2.1777 0.3113,0.403 0.7776,0.6149 1.2501,0.6155 0.3221,7e-4 0.6435,-0.0981 0.9218,-0.2993 -0.6579,-0.8142 -1.295,-1.6462 -1.9124,-2.4939 z"
       style="fill:#000000;fill-rule:evenodd"
       id="path714"
       inkscape:connector-curvature="0" />
    <path
       d="m 446.3036,100.9613 c -0.7756,0.3462 -1.14,1.2464 -0.8142,2.0386 0.2525,0.6059 0.8383,0.9711 1.4545,0.9723 0.1886,6e-4 0.3771,-0.0368 0.5606,-0.1056 -0.424,-0.9561 -0.8244,-1.9247 -1.2009,-2.9053 z"
       style="fill:#000000;fill-rule:evenodd"
       id="path716"
       inkscape:connector-curvature="0" />
    <path
       d="m 443.9021,93.2188 c -0.8154,0.2418 -1.2937,1.0883 -1.0749,1.9127 0.1879,0.7035 0.8237,1.1685 1.5184,1.1698 0.1214,0 0.2436,-0.0153 0.3662,-0.0431 -0.2948,-1.0028 -0.5649,-2.0157 -0.8097,-3.0394 z"
       style="fill:#000000;fill-rule:evenodd"
       id="path718"
       inkscape:connector-curvature="0" />
    <path
       d="m 494.4693,139.9699 c -0.0842,0.8452 0.5168,1.593 1.3627,1.7194 0.0664,0.0103 0.1367,0.014 0.203,0.0148 0.7644,10e-4 1.4286,-0.5544 1.5533,-1.3235 -1.0477,-0.1114 -2.0871,-0.2481 -3.119,-0.4107 z"
       style="fill:#000000;fill-rule:evenodd"
       id="path720"
       inkscape:connector-curvature="0" />
    <path
       d="m 504.0806,140.7297 c -0.5136,-0.001 -1.0254,-0.01 -1.5367,-0.0228 0.024,0.8478 0.7175,1.526 1.571,1.5273 0.8522,0.002 1.5448,-0.6763 1.5727,-1.5228 -0.534,0.0133 -1.0699,0.0189 -1.607,0.0183 z"
       style="fill:#000000;fill-rule:evenodd"
       id="path722"
       inkscape:connector-curvature="0" />
    <path
       d="m 486.5643,138.1839 c -0.1975,0.8269 0.2966,1.6626 1.1203,1.8853 0.1367,0.0361 0.2721,0.0531 0.4087,0.0538 0.6802,6e-4 1.3015,-0.4442 1.5057,-1.1242 -1.0217,-0.2468 -2.0333,-0.5189 -3.0347,-0.8149 z"
       style="fill:#000000;fill-rule:evenodd"
       id="path724"
       inkscape:connector-curvature="0" />
    <path
       d="m 471.7809,131.5916 c -0.405,0.7459 -0.1455,1.6829 0.5934,2.1099 0.246,0.1449 0.5188,0.2125 0.7857,0.2125 0.5295,0.001 1.0414,-0.265 1.3387,-0.744 -0.9211,-0.5029 -1.8263,-1.0305 -2.7178,-1.5784 z"
       style="fill:#000000;fill-rule:evenodd"
       id="path726"
       inkscape:connector-curvature="0" />
    <path
       d="m 478.9545,135.3742 c -0.3036,0.7946 0.0748,1.6879 0.8655,2.017 0.1942,0.0803 0.3999,0.1201 0.5999,0.1201 0.6054,0.001 1.1773,-0.3498 1.4379,-0.9305 -0.9799,-0.3784 -1.948,-0.7801 -2.9033,-1.2066 z"
       style="fill:#000000;fill-rule:evenodd"
       id="path728"
       inkscape:connector-curvature="0" />
    <path
       d="m 465.1652,126.9029 c -0.4973,0.6865 -0.367,1.6488 0.3113,2.1714 0.2858,0.22 0.6225,0.3264 0.9584,0.3264 0.458,0.001 0.9097,-0.1987 1.2211,-0.5796 -0.8465,-0.6187 -1.6779,-1.2583 -2.4908,-1.9182 z"
       style="fill:#000000;fill-rule:evenodd"
       id="path730"
       inkscape:connector-curvature="0" />
    <path
       d="m 504.1882,45.5898 c -18.2781,0 -33.1482,14.87 -33.1482,33.1482 0,18.2776 14.8701,33.1474 33.1482,33.1474 18.2774,0 33.1482,-14.8698 33.1482,-33.1474 0,-18.2782 -14.8708,-33.1482 -33.1482,-33.1482 z m 0,66.829 c -18.5717,0 -33.6808,-15.1091 -33.6808,-33.6808 0,-18.5723 15.1091,-33.6816 33.6808,-33.6816 18.5717,0 33.6808,15.1093 33.6808,33.6816 0,18.5717 -15.1091,33.6808 -33.6808,33.6808 z"
       style="fill:#000000;fill-rule:evenodd"
       id="path732"
       inkscape:connector-curvature="0" />
    <path
       d="m 517.3045,30.053 c -0.1411,0 -0.2595,-0.1114 -0.2663,-0.2543 -0.3163,-6.8778 -5.961,-12.2648 -12.85,-12.2648 -6.8897,0 -12.5343,5.387 -12.8505,12.2648 -0.007,0.1461 -0.1083,0.2593 -0.2785,0.2543 -0.1474,-0.007 -0.2606,-0.1322 -0.2543,-0.2791 0.3303,-7.1623 6.2082,-12.7734 13.3833,-12.7734 7.1749,0 13.053,5.6111 13.3826,12.7734 0.007,0.1469 -0.1068,0.2721 -0.2537,0.2791 z"
       style="fill:#000000;fill-rule:evenodd"
       id="path734"
       inkscape:connector-curvature="0" />
    <path
       d="m 468.353,43.1693 c -0.0961,0 -0.189,-0.0526 -0.2365,-0.1444 -3.2962,-6.367 -1.0109,-14.1651 5.2029,-17.7529 6.2147,-3.5872 14.1096,-1.6683 17.9765,4.371 0.0796,0.1234 0.043,0.2886 -0.0803,0.3682 -0.1234,0.0791 -0.2886,0.0437 -0.3682,-0.0809 -3.7125,-5.7985 -11.2968,-7.6406 -17.261,-4.1965 -5.9665,3.4449 -8.1612,10.9329 -4.9966,17.0463 0.0683,0.1309 0.017,0.2918 -0.1146,0.3587 -0.0386,0.021 -0.0804,0.0305 -0.1222,0.0305 z"
       style="fill:#000000;fill-rule:evenodd"
       id="path736"
       inkscape:connector-curvature="0" />
    <path
       d="m 455.2369,65.8874 c -0.0495,0 -0.1001,-0.0132 -0.1444,-0.0418 -6.038,-3.8668 -7.9575,-11.763 -4.3704,-17.9763 3.5878,-6.214 11.3866,-8.4991 17.7531,-5.2031 0.1316,0.0671 0.1829,0.2278 0.1146,0.3587 -0.0678,0.1311 -0.2298,0.1817 -0.3587,0.1139 -6.1141,-3.1631 -13.6023,-0.9691 -17.047,4.9968 -3.4449,5.9666 -1.6013,13.5484 4.1963,17.2608 0.1241,0.0798 0.1601,0.2448 0.0803,0.3682 -0.0506,0.0798 -0.1366,0.1228 -0.2238,0.1228 z"
       style="fill:#000000;fill-rule:evenodd"
       id="path738"
       inkscape:connector-curvature="0" />
    <path
       d="M 455.2369,92.1206 C 448.0568,91.9561 442.452,85.913 442.452,78.738 c 0,-7.1756 5.6106,-13.0538 12.7722,-13.3834 0.1664,-0.0163 0.2713,0.1076 0.279,0.2545 0.006,0.1467 -0.1069,0.2721 -0.2543,0.2783 -6.877,0.3164 -12.2641,5.961 -12.2641,12.8506 0,6.889 5.3871,12.5336 12.2641,12.85 0.1474,0.0062 0.2606,0.1314 0.2543,0.2783 -0.007,0.1429 -0.1253,0.2575 -0.2663,0.2543 z"
       style="fill:#000000;fill-rule:evenodd"
       id="path740"
       inkscape:connector-curvature="0" />
    <path
       d="m 462.3207,116.3147 c -4.636,0 -9.1211,-2.4173 -11.5986,-6.7086 -3.5871,-6.2133 -1.6676,-14.1097 4.3704,-17.9764 0.1234,-0.0785 0.2886,-0.0437 0.3682,0.0809 0.0798,0.1234 0.0438,0.2886 -0.0803,0.3682 -5.7976,3.7124 -7.6412,11.295 -4.1963,17.261 3.4454,5.9665 10.9329,8.1612 17.047,4.9959 0.1289,-0.0669 0.2909,-0.017 0.3587,0.1139 0.0683,0.1311 0.017,0.2918 -0.1146,0.3594 -1.9695,1.0199 -4.0774,1.5057 -6.1545,1.5057 z"
       style="fill:#000000;fill-rule:evenodd"
       id="path742"
       inkscape:connector-curvature="0" />
    <path
       d="m 480.0225,134.0071 c -2.2794,6e-4 -4.588,-0.5826 -6.7031,-1.8037 -6.2138,-3.5879 -8.4991,-11.3859 -5.2029,-17.7538 0.0683,-0.1309 0.229,-0.1808 0.3587,-0.1139 0.1316,0.0678 0.1829,0.2285 0.1146,0.3594 -3.1646,6.1141 -0.9699,13.6016 4.9966,17.0465 5.966,3.4447 13.5491,1.6018 17.261,-4.196 0.0796,-0.1239 0.2453,-0.1594 0.3682,-0.0809 0.1233,0.0791 0.1599,0.2443 0.0803,0.3682 -2.5503,3.9833 -6.855,6.1742 -11.2734,6.1742 z"
       style="fill:#000000;fill-rule:evenodd"
       id="path744"
       inkscape:connector-curvature="0" />
    <path
       d="m 504.1882,140.4747 c -7.1751,0 -13.053,-5.6104 -13.3833,-12.7734 -0.006,-0.1467 0.1069,-0.2713 0.2543,-0.2783 0.1689,-0.0158 0.2708,0.1076 0.2785,0.2537 0.3162,6.8776 5.9608,12.2647 12.8505,12.2647 6.889,0 12.5337,-5.3871 12.85,-12.2647 0.007,-0.1461 0.1081,-0.2683 0.2789,-0.2537 0.1469,0.007 0.2607,0.1316 0.2537,0.2783 -0.3296,7.163 -6.2077,12.7734 -13.3826,12.7734 z"
       style="fill:#000000;fill-rule:evenodd"
       id="path746"
       inkscape:connector-curvature="0" />
    <path
       d="m 528.3533,134.0071 c -4.418,6e-4 -8.7226,-2.1909 -11.2728,-6.1742 -0.0798,-0.1239 -0.0437,-0.2891 0.0804,-0.3682 0.1234,-0.0785 0.2891,-0.0435 0.3682,0.0809 3.7131,5.7973 11.2962,7.6401 17.2607,4.196 5.9667,-3.4444 8.1614,-10.9324 4.9969,-17.0465 -0.0678,-0.1309 -0.0165,-0.2916 0.1144,-0.3594 0.1298,-0.0669 0.2911,-0.017 0.3588,0.1139 3.2955,6.3684 1.0102,14.1665 -5.203,17.7538 -2.115,1.2211 -4.4243,1.8037 -6.7036,1.8037 z"
       style="fill:#000000;fill-rule:evenodd"
       id="path748"
       inkscape:connector-curvature="0" />
    <path
       d="m 546.055,116.3147 c -2.0771,0 -4.1837,-0.4851 -6.1539,-1.5057 -0.1309,-0.0676 -0.1822,-0.2283 -0.1144,-0.3594 0.0683,-0.1309 0.2295,-0.1808 0.3594,-0.1139 6.1152,3.1653 13.6021,0.9693 17.0457,-4.9959 3.4447,-5.9668 1.6011,-13.5486 -4.1965,-17.261 -0.1233,-0.0796 -0.1601,-0.2448 -0.0803,-0.3682 0.0796,-0.1239 0.246,-0.1594 0.3682,-0.0809 6.0381,3.8662 7.9575,11.7624 4.3709,17.9764 -2.478,4.2906 -6.9629,6.7086 -11.5991,6.7086 z"
       style="fill:#000000;fill-rule:evenodd"
       id="path750"
       inkscape:connector-curvature="0" />
    <path
       d="m 553.1395,92.1206 c -0.1424,0 -0.2593,-0.1114 -0.2663,-0.2543 -0.007,-0.1469 0.1069,-0.2721 0.2538,-0.2783 6.8775,-0.3164 12.2653,-5.961 12.2653,-12.85 0,-6.8896 -5.3878,-12.5342 -12.2648,-12.8506 -0.1467,-0.0062 -0.2606,-0.1316 -0.2538,-0.2783 0.008,-0.1469 0.1109,-0.2695 0.2786,-0.2545 7.1623,0.3296 12.7727,6.2078 12.7727,13.3834 0,7.175 -5.6104,13.053 -12.7735,13.3826 z"
       style="fill:#000000;fill-rule:evenodd"
       id="path752"
       inkscape:connector-curvature="0" />
    <path
       d="m 553.1402,65.8874 c -0.088,0 -0.1741,-0.043 -0.2247,-0.1228 -0.0796,-0.1234 -0.043,-0.2884 0.0804,-0.3682 5.7977,-3.7124 7.6406,-11.2942 4.1959,-17.2608 -3.4449,-5.9667 -10.9305,-8.1612 -17.0457,-4.9968 -0.1299,0.0678 -0.2911,0.0172 -0.3594,-0.1139 -0.0678,-0.1309 -0.0165,-0.2916 0.1144,-0.3587 6.3664,-3.2974 14.166,-1.0103 17.753,5.2031 3.5866,6.2133 1.6672,14.1095 -4.3704,17.9763 -0.0443,0.0286 -0.0941,0.0418 -0.1435,0.0418 z"
       style="fill:#000000;fill-rule:evenodd"
       id="path754"
       inkscape:connector-curvature="0" />
    <path
       d="m 540.0232,43.1693 c -0.041,0 -0.0834,-0.0095 -0.1221,-0.0305 -0.1309,-0.0669 -0.1822,-0.2278 -0.1144,-0.3587 3.1645,-6.1139 0.9698,-13.6014 -4.9969,-17.0463 -5.9665,-3.4441 -13.5488,-1.602 -17.2607,4.1965 -0.0791,0.1239 -0.2448,0.16 -0.3682,0.0809 -0.1241,-0.0796 -0.1602,-0.2448 -0.0804,-0.3682 3.8656,-6.0388 11.7618,-7.9595 17.9764,-4.371 6.2132,3.5871 8.4985,11.3852 5.203,17.7529 -0.0475,0.0918 -0.1398,0.1444 -0.2367,0.1444 z"
       style="fill:#000000;fill-rule:evenodd"
       id="path756"
       inkscape:connector-curvature="0" />
    <path
       d="m 517.3386,30.0618 c -0.0228,0 -0.0456,-0.0031 -0.0696,-0.0088 -0.1417,-0.0386 -0.2258,-0.1847 -0.1879,-0.3271 l 2.8041,-10.4371 c 0.0385,-0.1416 0.1822,-0.2257 0.3269,-0.1877 0.1419,0.0378 0.226,0.1847 0.1887,0.3264 l -2.8047,10.437 c -0.0323,0.1189 -0.1399,0.1973 -0.2575,0.1973 z"
       style="fill:#000000;fill-rule:evenodd"
       id="path758"
       inkscape:connector-curvature="0" />
    <path
       d="m 491.1054,30.0442 c -0.1176,0 -0.2252,-0.0786 -0.2575,-0.1982 L 488.058,19.4052 c -0.038,-0.1422 0.0461,-0.2883 0.1885,-0.3264 0.1391,-0.0392 0.2885,0.0463 0.3264,0.1885 l 2.7901,10.4415 c 0.0378,0.1424 -0.0463,0.2884 -0.1892,0.3264 -0.0228,0.0063 -0.0456,0.009 -0.0684,0.009 z"
       style="fill:#000000;fill-rule:evenodd"
       id="path760"
       inkscape:connector-curvature="0" />
    <path
       d="m 468.3778,43.1445 c -0.0683,0 -0.1367,-0.0258 -0.1885,-0.0778 l -7.6363,-7.6474 c -0.1044,-0.1046 -0.1037,-0.2728 0,-0.3772 0.1038,-0.1044 0.2733,-0.1031 0.3771,7e-4 l 7.6362,7.6469 c 0.1043,0.1044 0.1038,0.2733 0,0.377 -0.0519,0.052 -0.1202,0.0778 -0.1885,0.0778 z"
       style="fill:#000000;fill-rule:evenodd"
       id="path762"
       inkscape:connector-curvature="0" />
    <path
       d="m 455.2457,65.8539 c -0.0228,0 -0.0456,-0.0025 -0.069,-0.009 l -10.4369,-2.8044 c -0.1424,-0.0381 -0.2265,-0.1842 -0.1887,-0.3266 0.0388,-0.1422 0.1817,-0.2263 0.3272,-0.1878 l 10.437,2.804 c 0.1417,0.0378 0.2258,0.1847 0.1885,0.3263 -0.0323,0.1189 -0.1397,0.1975 -0.2581,0.1975 z"
       style="fill:#000000;fill-rule:evenodd"
       id="path764"
       inkscape:connector-curvature="0" />
    <path
       d="m 444.7872,94.8772 c -0.1177,0 -0.2253,-0.0786 -0.2576,-0.1982 -0.0378,-0.1422 0.0463,-0.2884 0.1892,-0.3264 l 10.4408,-2.7899 c 0.1399,-0.0361 0.2873,0.0461 0.3259,0.189 0.038,0.1424 -0.0463,0.2885 -0.1892,0.3266 l -10.4401,2.7899 c -0.0235,0.0057 -0.0463,0.009 -0.069,0.009 z"
       style="fill:#000000;fill-rule:evenodd"
       id="path766"
       inkscape:connector-curvature="0" />
    <path
       d="m 460.6816,122.4509 c -0.0684,0 -0.1367,-0.0259 -0.1887,-0.0779 -0.1044,-0.1043 -0.1037,-0.2733 0,-0.3769 l 7.6471,-7.6369 c 0.1036,-0.1044 0.2733,-0.1038 0.3769,0 0.1044,0.1044 0.1039,0.2733 0,0.3777 l -7.6469,7.6361 c -0.0518,0.052 -0.1201,0.0779 -0.1884,0.0779 z"
       style="fill:#000000;fill-rule:evenodd"
       id="path768"
       inkscape:connector-curvature="0" />
    <path
       d="m 488.2337,138.3838 c -0.0227,0 -0.0455,-0.003 -0.0688,-0.01 -0.1424,-0.038 -0.2265,-0.1847 -0.1885,-0.3264 l 2.8039,-10.437 c 0.0386,-0.1424 0.1815,-0.2265 0.3269,-0.1885 0.1424,0.0379 0.226,0.1847 0.1887,0.3264 l -2.8046,10.4376 c -0.0323,0.1183 -0.1399,0.1974 -0.2576,0.1974 z"
       style="fill:#000000;fill-rule:evenodd"
       id="path770"
       inkscape:connector-curvature="0" />
    <path
       d="m 520.0609,138.4053 c -0.1182,0 -0.2258,-0.0785 -0.258,-0.1974 l -2.7894,-10.4413 c -0.0373,-0.1424 0.046,-0.2886 0.1892,-0.3266 0.1404,-0.0386 0.2871,0.0463 0.3264,0.1887 l 2.7894,10.4413 c 0.0373,0.1424 -0.0461,0.2885 -0.1892,0.3264 -0.0228,0.006 -0.0456,0.009 -0.0684,0.009 z"
       style="fill:#000000;fill-rule:evenodd"
       id="path772"
       inkscape:connector-curvature="0" />
    <path
       d="m 547.6353,122.5109 c -0.0688,0 -0.1366,-0.0265 -0.1885,-0.0783 l -7.6374,-7.6469 c -0.1043,-0.1044 -0.1038,-0.2733 0,-0.3772 0.1037,-0.1049 0.2734,-0.1036 0.377,0 l 7.6369,7.6469 c 0.1044,0.1046 0.1038,0.2733 0,0.3779 -0.0519,0.0518 -0.1202,0.0776 -0.188,0.0776 z"
       style="fill:#000000;fill-rule:evenodd"
       id="path774"
       inkscape:connector-curvature="0" />
    <path
       d="m 563.5676,94.9588 c -0.0228,0 -0.0456,-0.0033 -0.0689,-0.0095 l -10.437,-2.804 c -0.1424,-0.038 -0.2265,-0.1847 -0.1885,-0.3271 0.038,-0.1417 0.1815,-0.2265 0.3264,-0.1879 l 10.4377,2.8046 c 0.1417,0.0379 0.2258,0.184 0.1878,0.3264 -0.0316,0.1189 -0.1392,0.1975 -0.2575,0.1975 z"
       style="fill:#000000;fill-rule:evenodd"
       id="path776"
       inkscape:connector-curvature="0" />
    <path
       d="m 553.1483,65.9215 c -0.1176,0 -0.2251,-0.0791 -0.2573,-0.198 -0.0373,-0.1424 0.0461,-0.2885 0.189,-0.3264 l 10.4408,-2.7894 c 0.1406,-0.0385 0.2873,0.0461 0.3265,0.1885 0.0373,0.1424 -0.0468,0.2886 -0.1892,0.3264 l -10.4407,2.7901 c -0.0228,0.0063 -0.0456,0.0088 -0.0691,0.0088 z"
       style="fill:#000000;fill-rule:evenodd"
       id="path778"
       inkscape:connector-curvature="0" />
    <path
       d="m 540.0472,43.1946 c -0.0683,0 -0.1359,-0.0266 -0.1877,-0.0786 -0.1046,-0.1044 -0.1046,-0.2733 0,-0.377 l 7.6469,-7.6368 c 0.1044,-0.1044 0.2733,-0.1037 0.377,7e-4 0.1043,0.1044 0.1038,0.2726 0,0.377 l -7.6475,7.6361 c -0.052,0.0526 -0.1203,0.0786 -0.1887,0.0786 z"
       style="fill:#000000;fill-rule:evenodd"
       id="path780"
       inkscape:connector-curvature="0" />
    <path
       d="m 538.3891,43.1693 c -0.7536,0 -1.3673,0.6129 -1.3673,1.3671 0,0.7535 0.6137,1.3672 1.3673,1.3672 0.7548,0 1.3678,-0.6137 1.3678,-1.3672 v -1.3671 z m 0,3.2677 c -1.0477,0 -1.8999,-0.853 -1.8999,-1.9006 0,-1.0477 0.8522,-1.9005 1.8999,-1.9005 h 1.6341 c 0.1474,0 0.2663,0.1196 0.2663,0.2671 v 1.6334 c 0,1.0476 -0.8522,1.9006 -1.9004,1.9006 z"
       style="fill:#000000;fill-rule:evenodd"
       id="path782"
       inkscape:connector-curvature="0" />
    <path
       d="m 517.207,30.1504 -1.1837,0.6832 c -0.6529,0.3772 -0.8774,1.2148 -0.5005,1.8683 0.3759,0.6523 1.2161,0.8756 1.8671,0.4999 0.3169,-0.183 0.5428,-0.4771 0.6377,-0.8302 0.0943,-0.3529 0.0456,-0.7211 -0.1374,-1.0374 z m -0.4966,3.7669 c -0.6573,0 -1.2975,-0.3404 -1.6494,-0.949 -0.5238,-0.9078 -0.212,-2.0721 0.6953,-2.5959 l 1.4146,-0.8173 c 0.0608,-0.0348 0.1329,-0.0455 0.2032,-0.026 0.0676,0.0178 0.1259,0.0626 0.1612,0.124 l 0.8169,1.4146 c 0.2543,0.4392 0.3214,0.9515 0.1897,1.4418 -0.1309,0.4903 -0.4454,0.9003 -0.8844,1.1541 -0.2986,0.1721 -0.625,0.2537 -0.9471,0.2537 z"
       style="fill:#000000;fill-rule:evenodd"
       id="path784"
       inkscape:connector-curvature="0" />
    <path
       d="m 491.1693,30.1504 -0.6833,1.1838 c -0.1834,0.3163 -0.2315,0.6845 -0.1366,1.0374 0.0943,0.3531 0.3208,0.6472 0.6371,0.8302 0.3157,0.1822 0.6826,0.2308 1.037,0.1366 0.3529,-0.0949 0.6477,-0.3208 0.8299,-0.6365 0.183,-0.3163 0.231,-0.6852 0.1367,-1.0376 -0.0949,-0.3529 -0.3207,-0.6478 -0.637,-0.8307 z m 0.4973,3.7682 c -0.3296,0 -0.6542,-0.0861 -0.9471,-0.255 -0.4397,-0.2538 -0.7541,-0.6638 -0.8857,-1.1541 -0.1309,-0.4903 -0.0633,-1.0021 0.1897,-1.4418 l 0.8169,-1.4146 c 0.036,-0.0614 0.0941,-0.1062 0.1619,-0.124 0.0696,-0.0195 0.1417,-0.0088 0.2025,0.026 l 1.4151,0.8173 c 0.4392,0.2537 0.7536,0.6632 0.8852,1.1535 0.131,0.4903 0.0639,1.0026 -0.1899,1.4416 -0.2536,0.4405 -0.6635,0.7543 -1.1538,0.8858 -0.1639,0.0437 -0.3296,0.0653 -0.4948,0.0653 z"
       style="fill:#000000;fill-rule:evenodd"
       id="path786"
       inkscape:connector-curvature="0" />
    <path
       d="m 468.6195,43.1693 v 1.3671 c 0,0.7535 0.6137,1.3672 1.3671,1.3672 0.7548,0 1.3678,-0.6137 1.3678,-1.3672 0,-0.7542 -0.613,-1.3671 -1.3678,-1.3671 z m 1.3671,3.2677 c -1.0477,0 -1.8999,-0.853 -1.8999,-1.9006 V 42.903 c 0,-0.1475 0.1196,-0.2671 0.2663,-0.2671 h 1.6336 c 1.0477,0 1.9006,0.8528 1.9006,1.9005 0,1.0476 -0.8529,1.9006 -1.9006,1.9006 z"
       style="fill:#000000;fill-rule:evenodd"
       id="path788"
       inkscape:connector-curvature="0" />
    <path
       d="m 455.6006,65.719 0.684,1.1838 c 0.3764,0.653 1.2152,0.8763 1.8669,0.5004 0.6529,-0.377 0.8775,-1.2147 0.5003,-1.8682 -0.1822,-0.3158 -0.4768,-0.5416 -0.8292,-0.6364 -0.3551,-0.0944 -0.722,-0.0463 -1.0377,0.1366 z m 1.8708,2.4005 c -0.6567,0 -1.2969,-0.3411 -1.6488,-0.9496 l -0.8174,-1.4154 c -0.0733,-0.1278 -0.029,-0.2903 0.0981,-0.3638 l 1.4146,-0.8173 c 0.4405,-0.2537 0.9535,-0.3208 1.4419,-0.1899 0.491,0.1317 0.9002,0.446 1.1545,0.8858 0.5239,0.9072 0.2115,2.0713 -0.6958,2.5951 -0.2986,0.1727 -0.6244,0.2551 -0.9471,0.2551 z"
       style="fill:#000000;fill-rule:evenodd"
       id="path790"
       inkscape:connector-curvature="0" />
    <path
       d="m 455.6006,91.7562 1.1843,0.684 c 0.6523,0.3776 1.4905,0.1517 1.8669,-0.5006 0.183,-0.3163 0.231,-0.6845 0.1367,-1.0374 -0.0942,-0.3524 -0.3207,-0.6473 -0.637,-0.8302 -0.6517,-0.3764 -1.4905,-0.1524 -1.8669,0.5011 z m 1.8644,1.4001 c -0.3226,0 -0.6485,-0.0824 -0.9471,-0.2543 l -1.4146,-0.8175 c -0.1271,-0.0733 -0.1714,-0.2365 -0.0981,-0.3637 l 0.8169,-1.4147 c 0.5251,-0.9071 1.6884,-1.2197 2.5964,-0.6953 0.439,0.2537 0.7534,0.6632 0.885,1.1535 0.131,0.4903 0.0639,1.0026 -0.1892,1.4417 -0.3516,0.6093 -0.9919,0.9503 -1.6493,0.9503 z"
       style="fill:#000000;fill-rule:evenodd"
       id="path792"
       inkscape:connector-curvature="0" />
    <path
       d="m 468.6195,114.3061 h 1.3671 c 0.7548,0 1.3678,-0.6131 1.3678,-1.3672 0,-0.7542 -0.613,-1.3671 -1.3678,-1.3671 -0.7534,0 -1.3671,0.6129 -1.3671,1.3671 z m 1.3671,0.5334 h -1.6336 c -0.1467,0 -0.2663,-0.1197 -0.2663,-0.2671 v -1.6335 c 0,-1.0477 0.8522,-1.9005 1.8999,-1.9005 1.0477,0 1.9006,0.8528 1.9006,1.9005 0,1.0484 -0.8529,1.9006 -1.9006,1.9006 z"
       style="fill:#000000;fill-rule:evenodd"
       id="path794"
       inkscape:connector-curvature="0" />
    <path
       d="m 491.6673,124.0907 c -0.2317,0 -0.467,0.0588 -0.6808,0.1829 -0.3163,0.1822 -0.5428,0.4771 -0.6371,0.83 -0.0949,0.3524 -0.0468,0.7213 0.1366,1.0376 l 0.6833,1.1837 1.1838,-0.6833 c 0.6528,-0.377 0.8768,-1.2147 0.5003,-1.8676 -0.253,-0.4383 -0.713,-0.6833 -1.1861,-0.6833 z m -0.5961,3.8649 c -0.0916,0 -0.1815,-0.0481 -0.2308,-0.1334 l -0.8169,-1.4146 c -0.253,-0.4398 -0.3206,-0.9516 -0.1897,-1.4419 0.1316,-0.4903 0.446,-0.9003 0.8857,-1.1539 0.9078,-0.5238 2.0726,-0.2119 2.5957,0.6959 0.5233,0.9072 0.2115,2.0713 -0.6953,2.5951 l -1.4151,0.8167 c -0.0418,0.0248 -0.0873,0.0361 -0.1336,0.0361 z"
       style="fill:#000000;fill-rule:evenodd"
       id="path796"
       inkscape:connector-curvature="0" />
    <path
       d="m 515.5228,124.774 c -0.3769,0.6529 -0.1524,1.4906 0.5005,1.8676 l 1.1837,0.6833 0.6832,-1.1837 c 0.183,-0.3163 0.2317,-0.6852 0.1374,-1.0376 -0.0949,-0.3524 -0.3208,-0.6478 -0.6372,-0.83 -0.6522,-0.3771 -1.4917,-0.1519 -1.8676,0.5004 z m 1.7817,3.1816 c -0.0455,0 -0.0911,-0.0113 -0.1336,-0.0361 l -1.4146,-0.8167 c -0.9073,-0.5238 -1.2197,-1.6886 -0.6958,-2.5951 0.5244,-0.9078 1.6897,-1.2197 2.597,-0.6959 0.439,0.2536 0.7535,0.6636 0.8844,1.1539 0.1317,0.4903 0.0646,1.0021 -0.1904,1.4419 l -0.8162,1.4146 c -0.0493,0.0853 -0.1384,0.1334 -0.2308,0.1334 z"
       style="fill:#000000;fill-rule:evenodd"
       id="path798"
       inkscape:connector-curvature="0" />
    <path
       d="m 538.3891,111.5718 c -0.7536,0 -1.3673,0.6129 -1.3673,1.3671 0,0.7541 0.6137,1.3672 1.3673,1.3672 h 1.3678 v -1.3672 c 0,-0.7542 -0.613,-1.3671 -1.3678,-1.3671 z m 1.6341,3.2677 h -1.6341 c -1.0477,0 -1.8999,-0.8522 -1.8999,-1.9006 0,-1.0477 0.8522,-1.9005 1.8999,-1.9005 1.0482,0 1.9004,0.8528 1.9004,1.9005 v 1.6335 c 0,0.1474 -0.1189,0.2671 -0.2663,0.2671 z"
       style="fill:#000000;fill-rule:evenodd"
       id="path800"
       inkscape:connector-curvature="0" />
    <path
       d="m 549.7232,91.9396 c 0.3771,0.653 1.2159,0.877 1.8676,0.5006 l 1.185,-0.684 -0.684,-1.1836 c -0.3764,-0.6525 -1.2153,-0.8775 -1.8676,-0.5006 -0.6529,0.3772 -0.8775,1.2154 -0.501,1.8676 z m 1.1881,1.2167 c -0.6573,0 -1.2975,-0.341 -1.6487,-0.9496 -0.5238,-0.9078 -0.2119,-2.0721 0.6946,-2.5959 0.4405,-0.2543 0.9535,-0.3214 1.4426,-0.1903 0.4903,0.1315 0.9003,0.4465 1.1538,0.8856 l 0.8169,1.4147 c 0.0734,0.1272 0.0298,0.2904 -0.0975,0.3637 l -1.4152,0.8175 c -0.298,0.1719 -0.6244,0.2543 -0.9465,0.2543 z"
       style="fill:#000000;fill-rule:evenodd"
       id="path802"
       inkscape:connector-curvature="0" />
    <path
       d="m 550.2242,67.4032 c 0.3157,0.1822 0.6833,0.2303 1.0377,0.1361 0.3529,-0.0943 0.6472,-0.3201 0.8299,-0.6365 l 0.684,-1.1838 -1.185,-0.6838 c -0.6517,-0.3764 -1.49,-0.1524 -1.8676,0.5004 -0.3757,0.6529 -0.1519,1.4906 0.501,1.8676 z m 0.6808,0.7168 c -0.3296,0 -0.6548,-0.0859 -0.9478,-0.2556 -0.9065,-0.5238 -1.2184,-1.6879 -0.6953,-2.5951 0.5251,-0.9078 1.6906,-1.2184 2.5959,-0.6959 l 1.4152,0.8173 c 0.1273,0.0735 0.1709,0.236 0.0975,0.3638 l -0.8169,1.4147 c -0.2535,0.4397 -0.6635,0.7541 -1.1538,0.885 -0.1639,0.0443 -0.3296,0.0658 -0.4948,0.0658 z"
       style="fill:#000000;fill-rule:evenodd"
       id="path804"
       inkscape:connector-curvature="0" />
  </g>
</svg>
