<?xml version="1.0" encoding="UTF-8" standalone="no"?>
<svg
   xmlns:dc="http://purl.org/dc/elements/1.1/"
   xmlns:cc="http://creativecommons.org/ns#"
   xmlns:rdf="http://www.w3.org/1999/02/22-rdf-syntax-ns#"
   xmlns:svg="http://www.w3.org/2000/svg"
   xmlns="http://www.w3.org/2000/svg"
   xmlns:sodipodi="http://sodipodi.sourceforge.net/DTD/sodipodi-0.dtd"
   xmlns:inkscape="http://www.inkscape.org/namespaces/inkscape"
   width="7.1903167"
   height="41.681217"
   id="svg3349"
   viewBox="0 0 7.1903166 41.681217"
   version="1.1"
   sodipodi:docname="hours0.svg"
   inkscape:version="0.92.5 (2060ec1f9f, 2020-04-08)">
  <metadata
     id="metadata9">
    <rdf:RDF>
      <cc:Work
         rdf:about="">
        <dc:format>image/svg+xml</dc:format>
        <dc:type
           rdf:resource="http://purl.org/dc/dcmitype/StillImage" />
        <dc:title></dc:title>
      </cc:Work>
    </rdf:RDF>
  </metadata>
  <defs
     id="defs7" />
  <sodipodi:namedview
     pagecolor="#ffffff"
     bordercolor="#666666"
     borderopacity="1"
     objecttolerance="10"
     gridtolerance="10"
     guidetolerance="10"
     inkscape:pageopacity="0"
     inkscape:pageshadow="2"
     inkscape:window-width="1848"
     inkscape:window-height="1016"
     id="namedview5"
     showgrid="false"
     inkscape:zoom="1.1212869"
     inkscape:cx="-184.46026"
     inkscape:cy="-5.5537528"
     inkscape:window-x="72"
     inkscape:window-y="27"
     inkscape:window-maximized="1"
     inkscape:current-layer="svg3349" />
  <g
     id="Layer1000"
     transform="rotate(75,283.5592,-270.12673)">
    <path
       d="m 507.6799,77.4442 c -0.257,0.0461 -0.8574,0.2468 -1.3893,0.4346 -2.203,-0.3935 -8.2646,-1.5778 -10.3011,-3.0147 -2.2028,-1.5538 -5.8249,-3.2955 -8.5041,-1.6176 -0.3847,-1.402 -1.0237,-2.6267 -2.2681,-3.1721 -1.0307,-0.4517 -2.194,-0.4397 -3.3303,-0.3436 -1.6981,0.1442 -3.3936,0.4625 -5.091,0.6162 -1.552,0.1411 -3.0772,0.0285 -4.5989,-0.0916 -0.1196,-0.0096 -0.1835,-0.014 -0.1835,-0.014 l -0.0448,0.1739 c 0,0 0.0588,0.0266 0.1682,0.0759 1.3901,0.6289 2.7799,1.2666 4.0711,2.1391 1.4134,0.9541 2.7446,2.0511 4.1617,2.9962 0.9484,0.6334 1.9625,1.2053 3.083,1.3072 1.3405,0.1214 2.4831,-0.6295 3.4904,-1.6576 1.5253,2.7874 5.5541,3.0133 8.2416,2.7147 2.4775,-0.2758 8.3574,1.6119 10.4776,2.3307 0.3757,0.4214 0.8039,0.8863 1.0071,1.0515 0.8953,0.725 2.7066,2.2142 5.6825,-0.6327 -1.233,-3.9295 -3.5385,-3.4998 -4.6721,-3.2961 z"
       style="fill:#000000;fill-rule:evenodd"
       id="path806"
       inkscape:connector-curvature="0" />
  </g>
</svg>
