<?xml version="1.0" encoding="UTF-8" standalone="no"?>
<!-- Created with Inkscape (http://www.inkscape.org/) -->

<svg
   xmlns:dc="http://purl.org/dc/elements/1.1/"
   xmlns:cc="http://creativecommons.org/ns#"
   xmlns:rdf="http://www.w3.org/1999/02/22-rdf-syntax-ns#"
   xmlns:svg="http://www.w3.org/2000/svg"
   xmlns="http://www.w3.org/2000/svg"
   xmlns:sodipodi="http://sodipodi.sourceforge.net/DTD/sodipodi-0.dtd"
   xmlns:inkscape="http://www.inkscape.org/namespaces/inkscape"
   width="1.5175557mm"
   height="15.567679mm"
   viewBox="0 0 1.5175557 15.567679"
   version="1.1"
   id="svg3730"
   inkscape:version="0.92.5 (2060ec1f9f, 2020-04-08)"
   sodipodi:docname="minutes0.svg">
  <defs
     id="defs3724" />
  <sodipodi:namedview
     id="base"
     pagecolor="#ffffff"
     bordercolor="#666666"
     borderopacity="1.0"
     inkscape:pageopacity="0.0"
     inkscape:pageshadow="2"
     inkscape:zoom="2.8"
     inkscape:cx="73.073509"
     inkscape:cy="-51.726418"
     inkscape:document-units="mm"
     inkscape:current-layer="layer1"
     showgrid="false"
     inkscape:window-width="1848"
     inkscape:window-height="1016"
     inkscape:window-x="72"
     inkscape:window-y="27"
     inkscape:window-maximized="1" />
  <metadata
     id="metadata3727">
    <rdf:RDF>
      <cc:Work
         rdf:about="">
        <dc:format>image/svg+xml</dc:format>
        <dc:type
           rdf:resource="http://purl.org/dc/dcmitype/StillImage" />
        <dc:title></dc:title>
      </cc:Work>
    </rdf:RDF>
  </metadata>
  <g
     inkscape:label="Layer 1"
     inkscape:groupmode="layer"
     id="layer1"
     transform="translate(0.00282283,0.03010922)">
    <g
       id="Layer1000"
       transform="matrix(0.20268259,-0.17007089,0.17007089,0.20268259,-114.76472,82.58367)">
      <path
         d="m 535.1107,41.4105 -0.0556,-0.0462 c 0,0 -0.0451,0.041 -0.1299,0.1176 -1.0773,0.9731 -2.1617,1.9429 -3.3776,2.7578 -1.3305,0.8921 -2.7318,1.6715 -4.0573,2.5687 -0.8877,0.6009 -1.7582,1.2754 -2.3238,2.1852 -0.6283,1.0109 -0.6175,2.1104 -0.3505,3.1941 -0.5896,-0.1422 -1.1355,-0.1574 -1.5347,0.1102 -0.4265,0.2865 -0.643,0.7781 -0.8144,1.2994 -0.2681,0.8142 -0.4485,1.7247 -0.7376,2.6345 -0.0343,0.1094 -0.0791,0.2163 -0.1189,0.3251 -3.1488,1.8436 -6.6328,6.7612 -8.6751,10.0852 -1.4368,2.3371 -5.3067,6.9801 -8.1321,10.2751 -0.7561,-0.2766 -1.6349,-0.0734 -2.1777,0.5826 -0.5231,0.632 -0.5795,1.495 -0.2125,2.1757 -0.0906,0.1032 -0.1867,0.2133 -0.2638,0.3006 -0.5018,0.3251 -1.056,0.6928 -1.287,0.875 -1.0419,0.8204 -3.1626,2.4806 -3.3119,5.8496 3.2816,-0.7756 4.516,-3.1703 5.1277,-4.3464 0.136,-0.2613 0.393,-0.8745 0.6187,-1.4279 0.0721,-0.0924 0.1614,-0.2069 0.2461,-0.3151 0.7371,0.2328 1.5742,0.0163 2.098,-0.6162 0.5427,-0.6555 0.5789,-1.5564 0.165,-2.2478 2.7098,-3.3911 6.5474,-8.0608 8.5752,-9.9081 2.8842,-2.628 7.0642,-6.9687 8.2871,-10.4073 0.0994,-0.0588 0.1955,-0.1227 0.2968,-0.1777 0.8402,-0.4537 1.7005,-0.8009 2.4503,-1.2161 0.4801,-0.2663 0.9223,-0.5699 1.1248,-1.0432 0.1809,-0.424 0.0803,-0.9325 -0.1492,-1.4614 1.1336,0.0696 2.2376,-0.1177 3.1278,-0.9376 0.7876,-0.7258 1.2882,-1.7069 1.7119,-2.6907 0.6347,-1.4702 1.1383,-2.9932 1.7658,-4.4661 0.5731,-1.3468 1.3242,-2.5932 2.0783,-3.8331 0.0595,-0.0976 0.0917,-0.1499 0.0917,-0.1499 z"
         style="fill:#000000;fill-rule:evenodd"
         id="path808"
         inkscape:connector-curvature="0" />
    </g>
  </g>
</svg>
